<svg xmlns="http://www.w3.org/2000/svg" width="47.96" height="48" viewBox="0 0 47.96 48">
  <g id="アイコン" transform="translate(-235.5 -626.53)">
    <ellipse id="楕円形_1" data-name="楕円形 1" cx="23.98" cy="24" rx="23.98" ry="24" transform="translate(235.5 626.53)" fill="#999"/>
    <path id="Icon_feather-phone" data-name="Icon feather-phone" d="M25.387,19.669V23.02a2.234,2.234,0,0,1-2.435,2.234,22.109,22.109,0,0,1-9.641-3.43,21.785,21.785,0,0,1-6.7-6.7,22.109,22.109,0,0,1-3.43-9.686A2.234,2.234,0,0,1,5.4,3H8.752a2.234,2.234,0,0,1,2.234,1.922,14.344,14.344,0,0,0,.782,3.139,2.234,2.234,0,0,1-.5,2.357L9.847,11.837a17.875,17.875,0,0,0,6.7,6.7l1.419-1.419a2.234,2.234,0,0,1,2.357-.5,14.345,14.345,0,0,0,3.139.782,2.234,2.234,0,0,1,1.922,2.268Z" transform="translate(245.202 636.398)" fill="#fff"/>
  </g>
</svg>
